<svg version="1.2" xmlns="http://www.w3.org/2000/svg" viewBox="0 0 1141 578" width="1141" height="578">
	<title>MeTV Toons logo recreation</title>
	<defs>
		<linearGradient id="g1" x2="1" gradientUnits="userSpaceOnUse" gradientTransform="matrix(107.865,-313.263,268.328,92.393,93.567,549.475)">
			<stop offset="0" stop-color="#2cc0f4"/>
			<stop offset="1" stop-color="#ffffff"/>
		</linearGradient>
		<linearGradient id="g2" x2="1" gradientUnits="userSpaceOnUse" gradientTransform="matrix(90.652,-263.273,277.564,95.573,760.94,529.849)">
			<stop offset="0" stop-color="#2cc0f4"/>
			<stop offset="1" stop-color="#ffffff"/>
		</linearGradient>
		<linearGradient id="g3" x2="1" gradientUnits="userSpaceOnUse" gradientTransform="matrix(-174.124,-327.48,212.076,-112.763,952.055,613.309)">
			<stop offset="0" stop-color="#2cc0f4" stop-opacity="1"/>
			<stop offset=".99" stop-color="#2cc0f4" stop-opacity=".005"/>
			<stop offset="1" stop-color="#2cc0f4" stop-opacity="0"/>
		</linearGradient>
		<linearGradient id="g4" x2="1" gradientUnits="userSpaceOnUse" gradientTransform="matrix(56.571,-164.293,97.96,33.73,715.144,539.592)">
			<stop offset="0" stop-color="#2cc0f4" stop-opacity="1"/>
			<stop offset=".99" stop-color="#2cc0f4" stop-opacity=".005"/>
			<stop offset="1" stop-color="#2cc0f4" stop-opacity="0"/>
		</linearGradient>
		<linearGradient id="g5" x2="1" gradientUnits="userSpaceOnUse" gradientTransform="matrix(0,287,-250.554,0,147.723,247.26)">
			<stop offset="0" stop-color="#27bff4"/>
			<stop offset="1" stop-color="#fbfeff"/>
		</linearGradient>
		<linearGradient id="g6" x2="1" gradientUnits="userSpaceOnUse" gradientTransform="matrix(0,239,-238.12,0,806.06,261)">
			<stop offset="0" stop-color="#2cc0f4"/>
			<stop offset="1" stop-color="#ffffff"/>
		</linearGradient>
		<linearGradient id="g7" x2="1" gradientUnits="userSpaceOnUse" gradientTransform="matrix(12.724,242.781,-251.236,13.167,349.302,315.85)">
			<stop offset="0" stop-color="#fefefe"/>
			<stop offset="1" stop-color="#30c1f5"/>
		</linearGradient>
		<linearGradient id="g8" x2="1" gradientUnits="userSpaceOnUse" gradientTransform="matrix(0,226.445,-236.996,0,355.683,324.295)">
			<stop offset="0" stop-color="#2cc0f4"/>
			<stop offset="1" stop-color="#ffffff"/>
		</linearGradient>
		<linearGradient id="g9" x2="1" gradientUnits="userSpaceOnUse" gradientTransform="matrix(-50.198,-217.433,224.824,-51.905,582.675,476.055)">
			<stop offset="0" stop-color="#2cc0f4"/>
			<stop offset="1" stop-color="#ffffff"/>
		</linearGradient>
		<linearGradient id="g10" x2="1" gradientUnits="userSpaceOnUse" gradientTransform="matrix(0,203.113,-211.989,0,556.964,266.02)">
			<stop offset="0" stop-color="#2cc0f4"/>
			<stop offset="1" stop-color="#ffffff"/>
		</linearGradient>
		<linearGradient id="g11" x2="1" gradientUnits="userSpaceOnUse" gradientTransform="matrix(16.172,-131.706,122.037,14.984,347.806,497.46)">
			<stop offset="0" stop-color="#63d1f7"/>
			<stop offset=".5" stop-color="#a0e3fa"/>
			<stop offset="1" stop-color="#d2f2fd"/>
		</linearGradient>
		<linearGradient id="g12" x2="1" gradientUnits="userSpaceOnUse" gradientTransform="matrix(14.467,-117.823,108.955,13.378,550.075,420.953)">
			<stop offset="0" stop-color="#78d6f8"/>
			<stop offset="1" stop-color="#ffffff"/>
		</linearGradient>
		<radialGradient id="g13" cx="0" cy="0" r="1" gradientUnits="userSpaceOnUse" gradientTransform="matrix(54.675,-39.724,39.724,54.675,567.15,312.555)">
			<stop offset="0" stop-color="#b4e9fb" stop-opacity="1"/>
			<stop offset="1" stop-color="#b4e9fb" stop-opacity="0"/>
		</radialGradient>
		<linearGradient id="g14" x2="1" gradientUnits="userSpaceOnUse" gradientTransform="matrix(208.015,-151.132,140.6,193.52,922.69,465.545)">
			<stop offset="0" stop-color="#2cc0f4"/>
			<stop offset="1" stop-color="#ffffff"/>
		</linearGradient>
		<radialGradient id="g15" cx="0" cy="0" r="1" gradientUnits="userSpaceOnUse" gradientTransform="matrix(104.008,-75.566,75.566,104.008,933.091,419.024)">
			<stop offset="0" stop-color="#b4e9fb" stop-opacity="1"/>
			<stop offset="1" stop-color="#b4e9fb" stop-opacity="0"/>
		</radialGradient>
		<linearGradient id="g16" x2="1" gradientUnits="userSpaceOnUse" gradientTransform="matrix(194.102,231.322,-253.729,212.904,929.561,274.395)">
			<stop offset="0" stop-color="#2cc0f4"/>
			<stop offset="1" stop-color="#ffffff"/>
		</linearGradient>
		<linearGradient id="g17" x2="1" gradientUnits="userSpaceOnUse" gradientTransform="matrix(71.728,250.145,-234.796,67.327,990.749,264.984)">
			<stop offset="0" stop-color="#ffffff" stop-opacity="0"/>
			<stop offset="1" stop-color="#ffffff" stop-opacity="1"/>
		</linearGradient>
	</defs>
	<style>
		.s0 { fill: #000000 } 
		.s1 { fill: #ffcc4f } 
		.s2 { fill: #020305 } 
		.s3 { fill: #ffffff } 
		.s4 { fill: url(#g1) } 
		.s5 { fill: url(#g2) } 
		.s6 { fill: url(#g3) } 
		.s7 { fill: url(#g4) } 
		.s8 { fill: url(#g5) } 
		.s9 { opacity: .1;fill: #fbfeff } 
		.s10 { fill: url(#g6) } 
		.s11 { fill: url(#g7) } 
		.s12 { fill: url(#g8) } 
		.s13 { fill: url(#g9) } 
		.s14 { fill: url(#g10) } 
		.s15 { fill: url(#g11) } 
		.s16 { fill: url(#g12) } 
		.s17 { fill: url(#g13) } 
		.s18 { fill: url(#g14) } 
		.s19 { fill: url(#g15) } 
		.s20 { fill: url(#g16) } 
		.s21 { opacity: .5;fill: url(#g17) } 
	</style>
	<g id="Folder">
		<path id="Shape" class="s0" d="m175 41.1c0-22.7 18.4-41.1 41.1-41.1h709.8c22.7 0 41.1 18.4 41.1 41.1v185.8c0 22.7-18.4 41.1-41.1 41.1h-709.8c-22.7 0-41.1-18.4-41.1-41.1z"/>
		<path id="Shape" class="s1" d="m187 41.1c0-15.5 12.6-28.1 28.1-28.1h712.8c15.5 0 28.1 12.6 28.1 28.1v186.8c0 15.5-12.6 28.1-28.1 28.1h-712.8c-15.5 0-28.1-12.6-28.1-28.1z"/>
		<path id="Shape 14" class="s0" d="m596 55.1c0-10.5 8.6-19.1 19.1-19.1h296.8c10.5 0 19.1 8.6 19.1 19.1v160.8c0 10.5-8.6 19.1-19.1 19.1h-296.8c-10.5 0-19.1-8.6-19.1-19.1z"/>
		<path id="path5" class="s2" d="m464.6 225.1h-97.6v-10.1q4.3-0.4 10.6-1.2 1.1-0.1 2.2-0.3 1.1-0.2 2.2-0.4 1-0.3 2.1-0.6 1.1-0.2 2.1-0.6 1-0.3 2-0.8 0.9-0.5 1.8-1.2 0.8-0.6 1.6-1.4 0.7-0.8 1.3-1.6 0.6-1 1-2 0.4-1 0.6-2.1 0.3-1 0.4-2.1 0.1-1.1 0.1-2.2v-134.3l-61.9 158h-16q-1.2-4.2-5.7-16.6-4.4-12.4-7.3-20.1l-45.5-123.4v109.3q-0.1 3.1-0.1 6.1 0.1 3 0.4 5.9 0.2 3 0.7 6 0.4 3 1 5.9 0.4 1.7 1 3.4 0.6 1.6 1.5 3.1 0.8 1.6 1.9 2.9 1.1 1.4 2.4 2.6 1.3 0.8 2.6 1.6 1.4 0.8 2.8 1.4 1.4 0.6 2.9 1.1 1.5 0.5 3 0.9 1.4 0.4 2.8 0.8 1.4 0.4 2.9 0.8 1.4 0.3 2.8 0.6 1.5 0.3 2.9 0.6v10h-77.4v-10c2.1 0 5.6-0.9 10.4-1.7q1.6-0.3 3.1-0.7 1.5-0.4 3-1 1.5-0.5 2.9-1.3 1.4-0.7 2.7-1.6 1.4-1.1 2.6-2.4 1.1-1.3 2-2.9 0.9-1.5 1.5-3.2 0.5-1.7 0.8-3.4 0.5-3 0.8-6 0.4-3 0.6-6 0.2-3 0.3-6 0-3-0.1-6v-89.1q0.1-1.7 0-3.4-0.1-1.7-0.4-3.4-0.2-1.7-0.6-3.4-0.4-1.7-1-3.3-0.4-1.2-1-2.4-0.6-1.2-1.4-2.3-0.8-1.1-1.7-2.1-0.9-0.9-2-1.8-1.1-0.9-2.3-1.7-1.3-0.7-2.6-1.4-1.3-0.6-2.7-1.1-1.4-0.5-2.8-0.8-1.3-0.3-2.7-0.5-1.3-0.2-2.7-0.4-1.3-0.2-2.7-0.4-1.3-0.1-2.7-0.2v-10.1h83.2l44.1 118.4 37.6-96q0.6-1.6 1.1-3.1 0.5-1.6 0.9-3.2 0.5-1.6 0.9-3.2 0.4-1.6 0.8-3.2 0.3-1.1 0.6-2.3 0.3-1.2 0.5-2.4 0.3-1.2 0.5-2.4 0.2-1.2 0.3-2.4h79.8v10q-1.1 0.1-2.2 0.2-1 0.1-2.1 0.2-1.1 0.2-2.1 0.3-1.1 0.2-2.1 0.4-1.1 0.1-2.2 0.3-1.1 0.3-2.1 0.5-1.1 0.3-2.2 0.6-1 0.2-2.1 0.6-1 0.2-2 0.7-0.9 0.4-1.7 1.1-0.9 0.6-1.6 1.5-0.7 0.8-1.2 1.7-0.4 0.9-0.7 1.9-0.2 1-0.4 2-0.2 0.9-0.3 1.9-0.1 1.1-0.1 2.1v127.2q0 1 0.1 2 0 1 0.2 2 0.2 0.9 0.5 1.9 0.3 0.9 0.7 1.8 0.6 0.9 1.3 1.7 0.7 0.9 1.6 1.5 0.8 0.7 1.7 1.3 1 0.5 2 0.9 1 0.4 2 0.7 1 0.3 2.1 0.6 1 0.3 2.1 0.5 1 0.2 2.1 0.4 5.7 1 8.9 1.4z"/>
		<path id="path6" fill-rule="evenodd" class="s2" d="m582.5 194.8q-1.2 1.8-2.4 3.5-1.3 1.8-2.6 3.5-1.3 1.6-2.8 3.2-1.4 1.6-2.9 3.2-1.6 1.6-3.3 3.1-1.7 1.5-3.5 2.8-1.7 1.4-3.6 2.6-1.9 1.3-3.9 2.4-2 1.2-4.1 2.2-2.1 1-4.2 1.9-2.2 0.9-4.4 1.7-2.2 0.8-4.4 1.5-2.5 0.6-5 1.1-2.5 0.5-5 0.8-2.6 0.3-5.1 0.4-2.5 0.2-5.1 0.1-4.1 0.1-8.2-0.2-4.2-0.3-8.2-0.9-4.1-0.7-8.1-1.8-4-1-7.9-2.4-3.1-1.2-6.1-2.6-2.9-1.5-5.7-3.3-2.8-1.8-5.5-3.8-2.6-2.1-4.9-4.4-2.3-2.3-4.2-4.8-2-2.5-3.7-5.2-1.7-2.7-3.1-5.5-1.3-2.9-2.4-5.9-1.1-3.2-1.9-6.5-0.9-3.2-1.4-6.6-0.6-3.3-0.8-6.7-0.3-3.4-0.3-6.8 0-3.2 0.3-6.3 0.3-3.2 0.9-6.3 0.6-3.1 1.5-6.2 0.9-3 2.1-6 1.1-2.9 2.6-5.7 1.4-2.8 3.1-5.4 1.7-2.7 3.7-5.2 1.9-2.5 4.1-4.8 2.3-2.3 4.8-4.4 2.6-2.1 5.3-4 2.7-1.8 5.7-3.3 2.9-1.6 5.9-2.8 3.5-1.4 7.1-2.5 3.6-1.1 7.3-1.8 3.7-0.7 7.5-1 3.7-0.4 7.5-0.3 3.7-0.1 7.4 0.1 3.7 0.2 7.4 0.8 3.6 0.5 7.2 1.4 3.6 0.8 7.2 2 2.6 1 5.1 2.2 2.6 1.2 5 2.8 2.3 1.5 4.5 3.2 2.2 1.8 4.2 3.8 1.8 1.7 3.4 3.7 1.6 2 2.9 4.2 1.3 2.1 2.4 4.4 1.1 2.3 1.9 4.7 0.8 2.5 1.4 5 0.6 2.6 1.1 5.2 0.4 2.5 0.6 5.2 0.2 2.6 0.1 5.2v8.5h-85.6q0 26 10.1 39.5 10.1 13.5 31.9 13.5 2.8 0 5.6-0.4 2.9-0.4 5.6-1.3 2.7-0.8 5.2-2.1 2.6-1.2 4.9-2.9 2.4-1.6 4.7-3.5 2.2-1.8 4.2-3.9 2.1-2.1 3.9-4.3 1.9-2.3 3.5-4.7zm-48.3-48.4q0-7.6-0.7-15.6-0.1-1.7-0.3-3.4-0.3-1.7-0.6-3.3-0.3-1.7-0.8-3.3-0.4-1.6-1-3.2-0.4-1.4-1-2.6-0.6-1.2-1.3-2.4-0.8-1.1-1.7-2.1-0.9-1.1-1.9-2-1-0.7-2.2-1.3-1.1-0.6-2.3-1-1.2-0.4-2.5-0.6-1.3-0.1-2.5-0.1-2.5 0.1-4.9 0.8-2.3 0.7-4.4 2-2.1 1.3-3.7 3.2-1.6 1.9-2.7 4.1-1.7 3.6-3 7.5-1.3 3.8-2.1 7.8-0.8 3.9-1.1 8-0.4 4-0.2 8z"/>
		<path id="path7" class="s3" d="m618.9 63.1v34.3h43.6v104.7h46.8v-104.7h42.6v-34.3z"/>
		<path id="polygon7" class="s3" d="m863.2 63l-26.5 90.3-28.5-90.3h-51l54 139h49.6l53.5-139z"/>
	</g>
	<g id="Folder">
		<path id="Shape 12" class="s0" d="m225.6 357.9c-2.8 0.3-4.7 2.9-4.3 5.6l24.7 181.5c0.7 5-2.8 9.6-7.8 10.3l-102.6 13.8c-1.1 0.1-2.2-0.1-3.2-0.7l-10.3-6.1c-1.4-0.8-2.3-2.1-2.5-3.6l-23-176.3c-0.5-3.9-4.2-6.7-8.2-6.1l-58 8.3c-1.2 0.1-2.4-0.1-3.4-0.8l-10-6.2c-1.2-0.8-2-2.1-2.2-3.6l-13.9-99.4c-0.5-3.3 1.9-6.4 5.2-6.8l269.2-36.8c2.3-0.3 4.5 1 5.3 3.1l6.2 15.2q0.3 0.6 0.3 1.2l13.3 98z"/>
		<path id="Shape 11" class="s0" d="m662 507.4l12-248.4c0 0 3.4-16.9 9-17 5.6-0.1 102.5 4.3 105.1 5.3 2.7 1 4.9 8.7 4.9 8.7l8.5 0.2c0 0 23.1-15.9 63.1-9.2 39.9 6.7 74.7 42 74.2 78-0.5 31.8-4.6 184.6-4.8 188-0.2 3.4-4.5 6.4-7 7-2.5 0.6-15 4-15 4 0 0-89.5-4-94.9-4.6-5.3-0.7-6-6.2-5.1-11.4 0.9-5.2 6.5-126.1 6.6-133.6 0-7.4 3.1-23.2-14.9-23.3-17.9 0-17.1 10.1-17.7 22.9-0.6 12.8-6 121.8-6.7 131.5-0.3 4.9-1.4 4.6-5.8 6.5-4.4 2-9.2 3.4-13.5 4-4.3 0.6-90.2-3.5-93.4-4-3.3-0.5-4.6-4.6-4.6-4.6z"/>
		<path id="Shape 1" class="s4" d="m104.8 352.1l24.6 187.3c0.6 4.5 4.7 7.6 9.2 7l82-11.4c3.9-0.6 6.6-4.1 6.1-8l-25-187.9 71.1-9.2c4.5-0.6 7.6-4.7 7-9.1l-9.1-69.4c-0.5-3.9-4.1-6.6-8-6.1l-241.4 33c-3.9 0.6-6.6 4.1-6.1 8l9.5 69.9c0.5 3.9 4.1 6.6 8 6z"/>
		<path id="Shape 8" class="s5" d="m781 299l1.3-36.6c0.1-2.4-1.7-4.4-4.1-4.5l-81.1-4c-2.7-0.1-5.1 2-5.2 4.8l-11.5 231.2c-0.1 2.7 2 5.1 4.7 5.2l81.3 4c2.4 0.1 4.3-1.6 4.4-4 0 0 4.8-100.7 6.2-128.1 1.4-27.4 16.6-37 36-36 19.2 1 29.4 10.1 27.8 44.3-1.6 34.1-6.9 121.2-6.9 121.2-0.1 3.3 2.4 6.2 5.8 6.4l78.8 4.2c3.4 0.1 6.2-2.5 6.4-5.8 0 0 5.5-118.3 7.1-148.3 1.6-29.2-8.8-88.4-70.2-95.2-63.6-7.1-80.8 41.2-80.8 41.2z"/>
		<path id="Shape 8 copy 2" class="s6" d="m861.8 257.8c61.4 6.8 71.8 66 70.2 95.2-1.6 30-7.1 148.3-7.1 148.3-0.2 3.3-3 5.9-6.4 5.8l-78.8-4.2c-3.4-0.2-5.9-3.1-5.8-6.4 0 0 5.3-87.1 6.9-121.2 1.6-34.2-8.6-43.3-27.8-44.3-5.5-0.3-10.6 0.3-15.2 1.8l2.3-59.3c12.4-10.2 32-19 61.7-15.7z"/>
		<path id="Shape 8 copy" class="s7" d="m777 367c-1.4 27.4-6.2 128.1-6.2 128.1-0.1 2.4-2 4.1-4.4 4l-81.3-4c-2.7-0.1-4.8-2.5-4.7-5.2l11.5-231.2c0.1-2.8 2.5-4.9 5.2-4.8l81.1 4c2.4 0.1 4.2 2.1 4.1 4.5l-1.3 36.6c0 0 6.3-17.7 25.5-30.1l-1.2 62.3c-15.6 1.7-27.1 12.1-28.3 35.8z"/>
		<path id="Shape 2" class="s8" d="m22.4 285.4l241.6-32.4 9 69-72.3 10.1c-3.8 0.5-6.5 4.1-6 7.9l24.3 188-82 12-24.9-187.9c-0.6-4.5-4.7-7.6-9.2-7l-71.5 9.9z"/>
		<path id="Shape 2 copy" class="s9" d="m22.4 285.4l241.6-32.4 9 69-72.3 10.1c-3.8 0.5-6.5 4.1-6 7.9l24.3 188-82 12-24.9-187.9c-0.6-4.5-4.7-7.6-9.2-7l-71.5 9.9z"/>
		<path id="Shape 4" class="s10" d="m699 261l76 4-2.3 44.9c-0.1 2.9 2 5.4 4.9 5.8 3.4 0.3 5.5-1.3 7.8-8.1 2.2-6.8 20.7-51.2 77.3-42.4 61.1 9.4 63.6 67.4 62.2 95.5-2.1 41-6.9 139.3-6.9 139.3l-77-4.1 7-126c0 0 6.2-44.8-33.9-45.9-39.2-1-42.9 26.2-43.9 49.7-1 23.6-6.2 118.3-6.2 118.3l-77-3z"/>
		<path id="Shape 6 copy" fill-rule="evenodd" class="s0" d="m353.7 578c-77.9-0.6-138.2-63.5-135.3-139 2.8-73.6 64.9-132 139.4-132.1 74.9-0.2 136.2 58.5 136.8 132.8 0.6 76.3-62.5 138.9-140.9 138.3zm45.1-137.6c-0.2-23.6-20.1-42.6-44.3-42.5-24.1 0-43.5 18.9-43.6 42.3 0 23.5 19.5 42.7 43.8 42.9 24.5 0.2 44.2-19 44.1-42.7z"/>
		<path id="Shape 3 copy 3" fill-rule="evenodd" class="s11" d="m354 558.6c-69.4-0.3-124.7-54.7-123.9-121.8 0.9-67.1 57.6-121.1 127-120.9 69.5 0.1 124.9 54.6 124.1 121.8-0.9 67.2-57.7 121.2-127.2 120.9zm80.2-126.4c0-46.2-36.5-83.6-81.7-83.6-45.1 0-81.6 37.4-81.6 83.6 0 46.3 36.5 83.7 81.6 83.7 45.2 0 81.7-37.4 81.7-83.7z"/>
		<path id="Shape 3 copy 2" fill-rule="evenodd" class="s12" d="m354.1 550.7c-65.5-0.2-117.7-51-116.9-113.6 0.8-62.6 54.4-113 119.9-112.8 65.5 0.2 117.9 51 117.1 113.6-0.8 62.7-54.5 113.1-120.1 112.8zm59.9-119.2c0-34.6-26.1-62.5-58.5-62.5-32.4 0-58.5 27.9-58.5 62.5 0 34.6 26.1 62.5 58.5 62.5 32.4 0 58.5-27.9 58.5-62.5z"/>
		<path id="Shape 7 copy 3" fill-rule="evenodd" class="s0" d="m555.2 497.4c-79.9-4.3-123.5-63.3-123.2-124.4 0.4-60 44.3-125.6 127-126 77.7-0.4 124.8 62.2 126.5 120.8 2.3 74.8-59.4 133.3-130.3 129.6zm39.8-126.9c0-21.3-17-38.5-38-38.5-21 0-38 17.2-38 38.5 0 21.3 17 38.5 38 38.5 21 0 38-17.2 38-38.5z"/>
		<path id="Shape 7 copy 2" fill-rule="evenodd" class="s13" d="m554.8 476.1c-62-0.4-109.2-49.4-109.6-106.2-0.5-55 41-111.6 113.1-111.3 64.8 0.3 113.2 49.7 111.7 109.5-1.7 64.1-52.9 108.3-115.2 108zm75.5-114.1c0.4-43.3-31.2-77.7-70.8-77.3-39.5 0.3-72.1 35.2-73 78.2-1 43.3 30.5 78.4 70.4 78.2 40.1-0.2 72.9-35.7 73.4-79.1z"/>
		<path id="Shape 7 copy" fill-rule="evenodd" class="s14" d="m554.8 469.1c-55.5 0-103.1-45-103.8-99.4-0.7-51.2 40.2-102 107.1-103.7 59.2-1.5 105.1 45.6 104.9 102.2-0.3 60-50.5 101-108.2 100.9zm54.8-106.8c0.4-30.9-22.3-55.5-50.5-55.3-28.3 0.3-51.5 25.2-52.2 56-0.7 30.9 21.8 55.9 50.3 55.8 28.6-0.1 52.1-25.5 52.4-56.5z"/>
		<path id="Shape 3 copy" fill-rule="evenodd" class="s15" d="m355.8 497.5c-33.5 0.5-61-28.2-61-64.7-0.1-37.1 28.1-67.3 62.5-67 34.1 0.2 60.6 30.1 59.7 66.4-0.8 35.7-28 64.7-61.2 65.3zm54.7-64.4c1-32.7-22.3-59.8-52.6-60.1-30.8-0.2-55.9 27.3-55.9 60.9 0 32.9 24.4 58.5 54 57.9 29.3-0.6 53.5-26.6 54.5-58.7z"/>
		<path id="Shape 7" fill-rule="evenodd" class="s16" d="m556.5 421c-29.8 0.2-53.9-25.3-53.9-57.6 0-32.8 24.8-60 55.5-60.3 30.7-0.3 54.8 26.5 53.9 59.3-0.9 32.3-25.7 58.3-55.5 58.6zm50.7-58.7c0.3-29.4-21.3-52.8-48.2-52.6-26.9 0.2-49 24-49.7 53.3-0.6 29.4 20.8 53.3 48 53.1 27.2-0.1 49.5-24.2 49.9-53.8z"/>
		<path id="Shape 7 copy 4" fill-rule="evenodd" class="s17" d="m556.5 421c-29.8 0.2-53.9-25.3-53.9-57.6 0-32.8 24.8-60 55.5-60.3 30.7-0.3 54.8 26.5 53.9 59.3-0.9 32.3-25.7 58.3-55.5 58.6zm50.7-58.7c0.3-29.4-21.3-52.8-48.2-52.6-26.9 0.2-49 24-49.7 53.3-0.6 29.4 20.8 53.3 48 53.1 27.2-0.1 49.5-24.2 49.9-53.8z"/>
		<path id="Shape 13" class="s0" d="m953.4 426.5c6.7-5.9 15.7-9.4 26.6 0.6 11.6 10.5 36.3 25.8 47.4 22.6 10.4-3-96.9-26.7-91.6-108.8 2.2-34.5 22.2-92.1 103.2-91.4 61 0.5 101.4 42.8 101.7 57.6 0 3.1-0.3 8.5-4 13.6-10.6 14.5-36.7 37.6-39.7 40.3-4.6 4-11.1 4.3-23.1-5.9-15.4-13.1-33.9-12.9-33.9-12.9 0 0 24.4 12.3 48 25.8 23.6 13.5 61.1 48 34.7 114.4-29.4 74.2-136.1 73.8-193.8 23.4-2.3-2-6.3-5.2-8.1-7-17.3-18.7-5.9-36.4 1.2-43.8 8.3-8.6 24.7-22.7 31.4-28.5z"/>
		<path id="Shape 10" class="s18" d="m975 434c-3.4-3.1-8.8-7.1-15.1-2.1-6.3 5-31.7 29.3-35.2 32.8-3.4 3.5-2.1 10.8 1 13.4 7.5 6.2 44.7 42.9 103.3 43.9 61.6 1 95.8-41.7 94-84-1.8-42.3-26.7-57.4-61.1-74.4-39.2-19.3-44.8-25.8-39.9-35.6 4.9-9.8 29.2-7.8 43-1 13.8 6.8 22.9 20.3 29.7 15.8 7.5-4.9 22.9-20.8 32.1-29.8 6.6-6.4 4.2-13.1-2.8-19.5-7.3-6.7-37.2-40.3-99.9-35-40.4 3.5-69.6 31.6-76.4 61.9-3.6 16.5-0.7 35 5.8 48.9 13 27.9 46.8 42.3 69.5 54.7 11.8 6.4 23.2 13.4 24.9 18.8 1.3 4.3-0.9 8.6-3 11.5-2.1 2.9-29.6 15.9-69.9-20.3z"/>
		<path id="Shape 10 copy" class="s19" d="m975 434c-3.4-3.1-8.8-7.1-15.1-2.1-6.3 5-31.7 29.3-35.2 32.8-3.4 3.5-2.1 10.8 1 13.4 7.5 6.2 44.7 42.9 103.3 43.9 61.6 1 95.8-41.7 94-84-1.8-42.3-26.7-57.4-61.1-74.4-39.2-19.3-44.8-25.8-39.9-35.6 4.9-9.8 29.2-7.8 43-1 13.8 6.8 22.9 20.3 29.7 15.8 7.5-4.9 22.9-20.8 32.1-29.8 6.6-6.4 4.2-13.1-2.8-19.5-7.3-6.7-37.2-40.3-99.9-35-40.4 3.5-69.6 31.6-76.4 61.9-3.6 16.5-0.7 35 5.8 48.9 13 27.9 46.8 42.3 69.5 54.7 11.8 6.4 23.2 13.4 24.9 18.8 1.3 4.3-0.9 8.6-3 11.5-2.1 2.9-29.6 15.9-69.9-20.3z"/>
		<path id="Shape 5" class="s20" d="m932.8 475.5c-3.2-3.6-4.5-4.9-1.8-7.5 2.7-2.6 30.9-29.1 33-31 2.1-1.9 3.6-1.5 5 0 1.4 1.5 30.9 29.9 63.2 28 21-1.3 25.7-15.5 21.6-26.1-1.8-4.5-5.6-7.6-9.7-10-9.6-5.7-26.4-14.6-44.1-25.1-23.8-14-45.4-33.9-45.9-56.9-0.4-17 0-31.3 8.6-45.1 13.7-21.9 42-37.4 76.3-36.8 48.2 0.9 79.3 31.5 83.6 37.6 2.7 3.6-0.3 4.9-2.5 7-2.2 2.1-19.8 19.2-24.1 23.4-4.3 4.2-6.7 2.7-10 0-3.3-2.7-20.3-18.9-50-18-29.7 0.9-26.9 26.4-12.2 35 15.5 9 52.4 27.1 72 42.6 12.4 9.7 22.8 31.9 19.9 56.5-2.7 22.9-23.7 68.8-88.7 65.9-58.8-2.6-91-35.9-94.2-39.5z"/>
		<path id="Shape 5 copy" class="s21" d="m932.8 475.5c-3.2-3.6-4.5-4.9-1.8-7.5 2.7-2.6 30.9-29.1 33-31 2.1-1.9 3.6-1.5 5 0 1.4 1.5 30.9 29.9 63.2 28 21-1.3 25.7-15.5 21.6-26.1-1.8-4.5-5.6-7.6-9.7-10-9.6-5.7-26.4-14.6-44.1-25.1-23.8-14-45.4-33.9-45.9-56.9-0.4-17 0-31.3 8.6-45.1 13.7-21.9 42-37.4 76.3-36.8 48.2 0.9 79.3 31.5 83.6 37.6 2.7 3.6-0.3 4.9-2.5 7-2.2 2.1-19.8 19.2-24.1 23.4-4.3 4.2-6.7 2.7-10 0-3.3-2.7-20.3-18.9-50-18-29.7 0.9-26.9 26.4-12.2 35 15.5 9 52.4 27.1 72 42.6 12.4 9.7 22.8 31.9 19.9 56.5-2.7 22.9-23.7 68.8-88.7 65.9-58.8-2.6-91-35.9-94.2-39.5z"/>
	</g>
</svg>